<mxfile host="app.diagrams.net" modified="2024-07-01T10:15:58.280Z" agent="Mozilla/5.0 (Windows NT 10.0; Win64; x64) AppleWebKit/537.36 (KHTML, like Gecko) Chrome/126.0.0.0 Safari/537.36" etag="Ef5wt2-jSVBHzLN3EaSJ" version="24.6.4" type="device">
  <diagram name="Page-1" id="EmJbUKZ776SFPxJY3uXN">
    <mxGraphModel dx="2327" dy="1926" grid="1" gridSize="10" guides="1" tooltips="1" connect="1" arrows="1" fold="1" page="1" pageScale="1" pageWidth="827" pageHeight="1169" math="0" shadow="0">
      <root>
        <mxCell id="0" />
        <mxCell id="1" parent="0" />
        <mxCell id="xhi8yvY8Dx7TuCgXaCwZ-1" value="&lt;font style=&quot;font-size: 15px;&quot;&gt;User&lt;/font&gt;" style="rounded=0;whiteSpace=wrap;html=1;align=center;" vertex="1" parent="1">
          <mxGeometry x="120" y="180" width="120" height="60" as="geometry" />
        </mxCell>
        <mxCell id="xhi8yvY8Dx7TuCgXaCwZ-2" value="" style="endArrow=classic;html=1;rounded=0;exitX=0.443;exitY=0.03;exitDx=0;exitDy=0;exitPerimeter=0;" edge="1" parent="1" source="xhi8yvY8Dx7TuCgXaCwZ-1" target="xhi8yvY8Dx7TuCgXaCwZ-3">
          <mxGeometry width="50" height="50" relative="1" as="geometry">
            <mxPoint x="390" y="300" as="sourcePoint" />
            <mxPoint x="120" y="120" as="targetPoint" />
          </mxGeometry>
        </mxCell>
        <mxCell id="xhi8yvY8Dx7TuCgXaCwZ-3" value="&lt;font style=&quot;font-size: 15px;&quot;&gt;Id&lt;/font&gt;" style="ellipse;whiteSpace=wrap;html=1;" vertex="1" parent="1">
          <mxGeometry y="80" width="120" height="80" as="geometry" />
        </mxCell>
        <mxCell id="xhi8yvY8Dx7TuCgXaCwZ-4" value="&lt;font style=&quot;font-size: 15px;&quot;&gt;email(username)&lt;/font&gt;" style="ellipse;whiteSpace=wrap;html=1;" vertex="1" parent="1">
          <mxGeometry x="160" y="-20" width="120" height="80" as="geometry" />
        </mxCell>
        <mxCell id="xhi8yvY8Dx7TuCgXaCwZ-5" value="" style="endArrow=classic;html=1;rounded=0;entryX=0.5;entryY=1;entryDx=0;entryDy=0;exitX=0.5;exitY=0;exitDx=0;exitDy=0;" edge="1" parent="1" source="xhi8yvY8Dx7TuCgXaCwZ-1" target="xhi8yvY8Dx7TuCgXaCwZ-4">
          <mxGeometry width="50" height="50" relative="1" as="geometry">
            <mxPoint x="390" y="300" as="sourcePoint" />
            <mxPoint x="440" y="250" as="targetPoint" />
          </mxGeometry>
        </mxCell>
        <mxCell id="xhi8yvY8Dx7TuCgXaCwZ-6" value="&lt;font style=&quot;font-size: 15px;&quot;&gt;name&lt;/font&gt;" style="ellipse;whiteSpace=wrap;html=1;" vertex="1" parent="1">
          <mxGeometry x="40" width="120" height="80" as="geometry" />
        </mxCell>
        <mxCell id="xhi8yvY8Dx7TuCgXaCwZ-7" value="&lt;font style=&quot;font-size: 15px;&quot;&gt;password&lt;/font&gt;" style="ellipse;whiteSpace=wrap;html=1;" vertex="1" parent="1">
          <mxGeometry x="280" width="120" height="80" as="geometry" />
        </mxCell>
        <mxCell id="xhi8yvY8Dx7TuCgXaCwZ-8" value="&lt;font style=&quot;font-size: 15px;&quot;&gt;about&lt;/font&gt;" style="ellipse;whiteSpace=wrap;html=1;" vertex="1" parent="1">
          <mxGeometry x="270" y="90" width="120" height="80" as="geometry" />
        </mxCell>
        <mxCell id="xhi8yvY8Dx7TuCgXaCwZ-9" value="" style="endArrow=classic;html=1;rounded=0;entryX=0.68;entryY=0.965;entryDx=0;entryDy=0;entryPerimeter=0;exitX=0.5;exitY=0;exitDx=0;exitDy=0;" edge="1" parent="1" source="xhi8yvY8Dx7TuCgXaCwZ-1" target="xhi8yvY8Dx7TuCgXaCwZ-6">
          <mxGeometry width="50" height="50" relative="1" as="geometry">
            <mxPoint x="390" y="280" as="sourcePoint" />
            <mxPoint x="440" y="230" as="targetPoint" />
          </mxGeometry>
        </mxCell>
        <mxCell id="xhi8yvY8Dx7TuCgXaCwZ-10" value="" style="endArrow=classic;html=1;rounded=0;entryX=0.033;entryY=0.715;entryDx=0;entryDy=0;entryPerimeter=0;exitX=0.5;exitY=0;exitDx=0;exitDy=0;" edge="1" parent="1" source="xhi8yvY8Dx7TuCgXaCwZ-1" target="xhi8yvY8Dx7TuCgXaCwZ-7">
          <mxGeometry width="50" height="50" relative="1" as="geometry">
            <mxPoint x="390" y="280" as="sourcePoint" />
            <mxPoint x="440" y="230" as="targetPoint" />
          </mxGeometry>
        </mxCell>
        <mxCell id="xhi8yvY8Dx7TuCgXaCwZ-11" value="" style="endArrow=classic;html=1;rounded=0;entryX=0;entryY=0.5;entryDx=0;entryDy=0;exitX=0.5;exitY=0;exitDx=0;exitDy=0;" edge="1" parent="1" source="xhi8yvY8Dx7TuCgXaCwZ-1" target="xhi8yvY8Dx7TuCgXaCwZ-8">
          <mxGeometry width="50" height="50" relative="1" as="geometry">
            <mxPoint x="390" y="280" as="sourcePoint" />
            <mxPoint x="440" y="230" as="targetPoint" />
          </mxGeometry>
        </mxCell>
        <mxCell id="xhi8yvY8Dx7TuCgXaCwZ-12" value="&lt;font style=&quot;font-size: 15px;&quot;&gt;Post&lt;/font&gt;" style="rounded=0;whiteSpace=wrap;html=1;" vertex="1" parent="1">
          <mxGeometry x="580" y="180" width="120" height="60" as="geometry" />
        </mxCell>
        <mxCell id="xhi8yvY8Dx7TuCgXaCwZ-13" value="&lt;font style=&quot;font-size: 15px;&quot;&gt;post_id&lt;/font&gt;" style="ellipse;whiteSpace=wrap;html=1;" vertex="1" parent="1">
          <mxGeometry x="414" y="90" width="120" height="80" as="geometry" />
        </mxCell>
        <mxCell id="xhi8yvY8Dx7TuCgXaCwZ-14" value="&lt;font style=&quot;font-size: 15px;&quot;&gt;title&lt;/font&gt;" style="ellipse;whiteSpace=wrap;html=1;" vertex="1" parent="1">
          <mxGeometry x="460" y="10" width="120" height="80" as="geometry" />
        </mxCell>
        <mxCell id="xhi8yvY8Dx7TuCgXaCwZ-15" value="&lt;font style=&quot;font-size: 15px;&quot;&gt;content&lt;/font&gt;" style="ellipse;whiteSpace=wrap;html=1;" vertex="1" parent="1">
          <mxGeometry x="580" y="-20" width="120" height="80" as="geometry" />
        </mxCell>
        <mxCell id="xhi8yvY8Dx7TuCgXaCwZ-16" value="&lt;span style=&quot;font-size: 15px;&quot;&gt;image&lt;/span&gt;" style="ellipse;whiteSpace=wrap;html=1;" vertex="1" parent="1">
          <mxGeometry x="700" width="120" height="80" as="geometry" />
        </mxCell>
        <mxCell id="xhi8yvY8Dx7TuCgXaCwZ-17" value="&lt;i&gt;&lt;b&gt;&lt;font style=&quot;font-size: 15px;&quot;&gt;user_id&lt;/font&gt;&lt;/b&gt;&lt;/i&gt;" style="ellipse;whiteSpace=wrap;html=1;labelBackgroundColor=none;fillColor=#ffe6cc;strokeColor=#d79b00;" vertex="1" parent="1">
          <mxGeometry x="750" y="80" width="120" height="80" as="geometry" />
        </mxCell>
        <mxCell id="xhi8yvY8Dx7TuCgXaCwZ-18" value="" style="endArrow=classic;html=1;rounded=0;entryX=1;entryY=0.5;entryDx=0;entryDy=0;exitX=0.5;exitY=0;exitDx=0;exitDy=0;" edge="1" parent="1" source="xhi8yvY8Dx7TuCgXaCwZ-12" target="xhi8yvY8Dx7TuCgXaCwZ-13">
          <mxGeometry width="50" height="50" relative="1" as="geometry">
            <mxPoint x="480" y="280" as="sourcePoint" />
            <mxPoint x="410" y="220" as="targetPoint" />
          </mxGeometry>
        </mxCell>
        <mxCell id="xhi8yvY8Dx7TuCgXaCwZ-19" value="" style="endArrow=classic;html=1;rounded=0;entryX=1;entryY=1;entryDx=0;entryDy=0;exitX=0.5;exitY=0;exitDx=0;exitDy=0;" edge="1" parent="1" source="xhi8yvY8Dx7TuCgXaCwZ-12" target="xhi8yvY8Dx7TuCgXaCwZ-14">
          <mxGeometry width="50" height="50" relative="1" as="geometry">
            <mxPoint x="480" y="280" as="sourcePoint" />
            <mxPoint x="530" y="230" as="targetPoint" />
          </mxGeometry>
        </mxCell>
        <mxCell id="xhi8yvY8Dx7TuCgXaCwZ-20" value="" style="endArrow=classic;html=1;rounded=0;entryX=0.5;entryY=1;entryDx=0;entryDy=0;exitX=0.5;exitY=0;exitDx=0;exitDy=0;" edge="1" parent="1" source="xhi8yvY8Dx7TuCgXaCwZ-12" target="xhi8yvY8Dx7TuCgXaCwZ-15">
          <mxGeometry width="50" height="50" relative="1" as="geometry">
            <mxPoint x="480" y="280" as="sourcePoint" />
            <mxPoint x="530" y="230" as="targetPoint" />
          </mxGeometry>
        </mxCell>
        <mxCell id="xhi8yvY8Dx7TuCgXaCwZ-21" value="" style="endArrow=classic;html=1;rounded=0;exitX=0.5;exitY=0;exitDx=0;exitDy=0;" edge="1" parent="1" source="xhi8yvY8Dx7TuCgXaCwZ-12" target="xhi8yvY8Dx7TuCgXaCwZ-16">
          <mxGeometry width="50" height="50" relative="1" as="geometry">
            <mxPoint x="480" y="280" as="sourcePoint" />
            <mxPoint x="530" y="230" as="targetPoint" />
          </mxGeometry>
        </mxCell>
        <mxCell id="xhi8yvY8Dx7TuCgXaCwZ-22" value="" style="endArrow=classic;html=1;rounded=0;entryX=0;entryY=0.5;entryDx=0;entryDy=0;" edge="1" parent="1" target="xhi8yvY8Dx7TuCgXaCwZ-17">
          <mxGeometry width="50" height="50" relative="1" as="geometry">
            <mxPoint x="640" y="180" as="sourcePoint" />
            <mxPoint x="530" y="230" as="targetPoint" />
          </mxGeometry>
        </mxCell>
        <mxCell id="xhi8yvY8Dx7TuCgXaCwZ-26" value="&lt;b&gt;&lt;i&gt;&lt;font style=&quot;font-size: 15px;&quot;&gt;post_id&lt;/font&gt;&lt;/i&gt;&lt;/b&gt;" style="ellipse;whiteSpace=wrap;html=1;fillColor=#dae8fc;strokeColor=#6c8ebf;" vertex="1" parent="1">
          <mxGeometry x="460" y="390" width="120" height="80" as="geometry" />
        </mxCell>
        <mxCell id="xhi8yvY8Dx7TuCgXaCwZ-27" value="&lt;font style=&quot;font-size: 15px;&quot;&gt;comment_id&lt;/font&gt;" style="ellipse;whiteSpace=wrap;html=1;" vertex="1" parent="1">
          <mxGeometry x="230" y="470" width="120" height="80" as="geometry" />
        </mxCell>
        <mxCell id="xhi8yvY8Dx7TuCgXaCwZ-28" value="&lt;b&gt;&lt;i&gt;&lt;font style=&quot;font-size: 15px;&quot;&gt;user_id&lt;/font&gt;&lt;/i&gt;&lt;/b&gt;" style="ellipse;whiteSpace=wrap;html=1;fillColor=#ffe6cc;strokeColor=#d79b00;" vertex="1" parent="1">
          <mxGeometry x="330" y="400" width="120" height="80" as="geometry" />
        </mxCell>
        <mxCell id="xhi8yvY8Dx7TuCgXaCwZ-29" value="&lt;font style=&quot;font-size: 15px;&quot;&gt;comment&lt;/font&gt;" style="ellipse;whiteSpace=wrap;html=1;" vertex="1" parent="1">
          <mxGeometry x="540" y="460" width="120" height="80" as="geometry" />
        </mxCell>
        <mxCell id="xhi8yvY8Dx7TuCgXaCwZ-31" value="&lt;font style=&quot;font-size: 15px;&quot;&gt;comment&lt;/font&gt;" style="rounded=0;whiteSpace=wrap;html=1;" vertex="1" parent="1">
          <mxGeometry x="414" y="585" width="120" height="60" as="geometry" />
        </mxCell>
        <mxCell id="xhi8yvY8Dx7TuCgXaCwZ-32" value="" style="endArrow=classic;html=1;rounded=0;entryX=1;entryY=0.5;entryDx=0;entryDy=0;exitX=0.5;exitY=0;exitDx=0;exitDy=0;" edge="1" parent="1" source="xhi8yvY8Dx7TuCgXaCwZ-31" target="xhi8yvY8Dx7TuCgXaCwZ-27">
          <mxGeometry width="50" height="50" relative="1" as="geometry">
            <mxPoint x="480" y="380" as="sourcePoint" />
            <mxPoint x="530" y="330" as="targetPoint" />
          </mxGeometry>
        </mxCell>
        <mxCell id="xhi8yvY8Dx7TuCgXaCwZ-33" value="" style="endArrow=classic;html=1;rounded=0;entryX=0.5;entryY=1;entryDx=0;entryDy=0;exitX=0.5;exitY=0;exitDx=0;exitDy=0;" edge="1" parent="1" source="xhi8yvY8Dx7TuCgXaCwZ-31" target="xhi8yvY8Dx7TuCgXaCwZ-28">
          <mxGeometry width="50" height="50" relative="1" as="geometry">
            <mxPoint x="410" y="580" as="sourcePoint" />
            <mxPoint x="530" y="330" as="targetPoint" />
          </mxGeometry>
        </mxCell>
        <mxCell id="xhi8yvY8Dx7TuCgXaCwZ-34" value="" style="endArrow=classic;html=1;rounded=0;entryX=0.5;entryY=1;entryDx=0;entryDy=0;exitX=0.5;exitY=0;exitDx=0;exitDy=0;" edge="1" parent="1" source="xhi8yvY8Dx7TuCgXaCwZ-31" target="xhi8yvY8Dx7TuCgXaCwZ-26">
          <mxGeometry width="50" height="50" relative="1" as="geometry">
            <mxPoint x="410" y="590" as="sourcePoint" />
            <mxPoint x="530" y="330" as="targetPoint" />
          </mxGeometry>
        </mxCell>
        <mxCell id="xhi8yvY8Dx7TuCgXaCwZ-35" value="" style="endArrow=classic;html=1;rounded=0;entryX=0;entryY=0.5;entryDx=0;entryDy=0;exitX=0.5;exitY=0;exitDx=0;exitDy=0;" edge="1" parent="1" source="xhi8yvY8Dx7TuCgXaCwZ-31" target="xhi8yvY8Dx7TuCgXaCwZ-29">
          <mxGeometry width="50" height="50" relative="1" as="geometry">
            <mxPoint x="410" y="580" as="sourcePoint" />
            <mxPoint x="530" y="330" as="targetPoint" />
          </mxGeometry>
        </mxCell>
        <mxCell id="xhi8yvY8Dx7TuCgXaCwZ-36" value="" style="endArrow=none;html=1;rounded=0;entryX=0.5;entryY=1;entryDx=0;entryDy=0;exitX=0.5;exitY=0;exitDx=0;exitDy=0;" edge="1" parent="1" source="xhi8yvY8Dx7TuCgXaCwZ-37" target="xhi8yvY8Dx7TuCgXaCwZ-1">
          <mxGeometry width="50" height="50" relative="1" as="geometry">
            <mxPoint x="120" y="520" as="sourcePoint" />
            <mxPoint x="530" y="470" as="targetPoint" />
          </mxGeometry>
        </mxCell>
        <mxCell id="xhi8yvY8Dx7TuCgXaCwZ-37" value="do" style="rhombus;whiteSpace=wrap;html=1;" vertex="1" parent="1">
          <mxGeometry x="90" y="430" width="80" height="80" as="geometry" />
        </mxCell>
        <mxCell id="xhi8yvY8Dx7TuCgXaCwZ-38" value="" style="endArrow=none;html=1;rounded=0;exitX=0.5;exitY=1;exitDx=0;exitDy=0;entryX=0;entryY=0.5;entryDx=0;entryDy=0;" edge="1" parent="1" source="xhi8yvY8Dx7TuCgXaCwZ-37" target="xhi8yvY8Dx7TuCgXaCwZ-31">
          <mxGeometry width="50" height="50" relative="1" as="geometry">
            <mxPoint x="480" y="520" as="sourcePoint" />
            <mxPoint x="530" y="470" as="targetPoint" />
          </mxGeometry>
        </mxCell>
        <mxCell id="xhi8yvY8Dx7TuCgXaCwZ-39" value="have" style="rhombus;whiteSpace=wrap;html=1;" vertex="1" parent="1">
          <mxGeometry x="700" y="430" width="80" height="80" as="geometry" />
        </mxCell>
        <mxCell id="xhi8yvY8Dx7TuCgXaCwZ-40" value="" style="endArrow=none;html=1;rounded=0;entryX=0.5;entryY=1;entryDx=0;entryDy=0;exitX=0.5;exitY=0;exitDx=0;exitDy=0;" edge="1" parent="1" source="xhi8yvY8Dx7TuCgXaCwZ-39" target="xhi8yvY8Dx7TuCgXaCwZ-12">
          <mxGeometry width="50" height="50" relative="1" as="geometry">
            <mxPoint x="480" y="520" as="sourcePoint" />
            <mxPoint x="530" y="470" as="targetPoint" />
          </mxGeometry>
        </mxCell>
        <mxCell id="xhi8yvY8Dx7TuCgXaCwZ-41" value="" style="endArrow=none;html=1;rounded=0;exitX=1;exitY=0.5;exitDx=0;exitDy=0;entryX=0.5;entryY=1;entryDx=0;entryDy=0;" edge="1" parent="1" target="xhi8yvY8Dx7TuCgXaCwZ-39">
          <mxGeometry width="50" height="50" relative="1" as="geometry">
            <mxPoint x="537" y="622.5" as="sourcePoint" />
            <mxPoint x="743.0000000000005" y="517.5" as="targetPoint" />
            <Array as="points">
              <mxPoint x="643" y="567.5" />
            </Array>
          </mxGeometry>
        </mxCell>
        <mxCell id="xhi8yvY8Dx7TuCgXaCwZ-63" value="&lt;h2&gt;&lt;font style=&quot;font-size: 15px;&quot;&gt;n&lt;/font&gt;&lt;/h2&gt;" style="edgeLabel;html=1;align=center;verticalAlign=middle;resizable=0;points=[];" vertex="1" connectable="0" parent="xhi8yvY8Dx7TuCgXaCwZ-41">
          <mxGeometry x="-0.0548" y="-6" relative="1" as="geometry">
            <mxPoint x="13" y="-7" as="offset" />
          </mxGeometry>
        </mxCell>
        <mxCell id="xhi8yvY8Dx7TuCgXaCwZ-42" value="&lt;font style=&quot;font-size: 15px;&quot;&gt;roll&lt;/font&gt;" style="rounded=0;whiteSpace=wrap;html=1;" vertex="1" parent="1">
          <mxGeometry x="-10" y="660" width="120" height="60" as="geometry" />
        </mxCell>
        <mxCell id="xhi8yvY8Dx7TuCgXaCwZ-43" value="&lt;font style=&quot;font-size: 15px;&quot;&gt;roll_id&lt;/font&gt;" style="ellipse;whiteSpace=wrap;html=1;" vertex="1" parent="1">
          <mxGeometry x="-120" y="543" width="120" height="80" as="geometry" />
        </mxCell>
        <mxCell id="xhi8yvY8Dx7TuCgXaCwZ-44" value="&lt;font style=&quot;font-size: 15px;&quot;&gt;category&lt;/font&gt;" style="rounded=0;whiteSpace=wrap;html=1;" vertex="1" parent="1">
          <mxGeometry x="820" y="650" width="120" height="60" as="geometry" />
        </mxCell>
        <mxCell id="xhi8yvY8Dx7TuCgXaCwZ-45" value="&lt;font style=&quot;font-size: 15px;&quot;&gt;roll_name&lt;/font&gt;" style="ellipse;whiteSpace=wrap;html=1;" vertex="1" parent="1">
          <mxGeometry x="60" y="550" width="120" height="80" as="geometry" />
        </mxCell>
        <mxCell id="xhi8yvY8Dx7TuCgXaCwZ-46" value="&lt;font style=&quot;font-size: 15px;&quot;&gt;category_id&lt;/font&gt;" style="ellipse;whiteSpace=wrap;html=1;" vertex="1" parent="1">
          <mxGeometry x="730" y="530" width="120" height="80" as="geometry" />
        </mxCell>
        <mxCell id="xhi8yvY8Dx7TuCgXaCwZ-47" value="&lt;font style=&quot;font-size: 15px;&quot;&gt;category_title&lt;/font&gt;" style="ellipse;whiteSpace=wrap;html=1;" vertex="1" parent="1">
          <mxGeometry x="970" y="540" width="120" height="80" as="geometry" />
        </mxCell>
        <mxCell id="xhi8yvY8Dx7TuCgXaCwZ-48" value="" style="endArrow=classic;html=1;rounded=0;exitX=0.5;exitY=0;exitDx=0;exitDy=0;entryX=0.5;entryY=1;entryDx=0;entryDy=0;" edge="1" parent="1" source="xhi8yvY8Dx7TuCgXaCwZ-42" target="xhi8yvY8Dx7TuCgXaCwZ-43">
          <mxGeometry width="50" height="50" relative="1" as="geometry">
            <mxPoint x="480" y="520" as="sourcePoint" />
            <mxPoint x="530" y="470" as="targetPoint" />
          </mxGeometry>
        </mxCell>
        <mxCell id="xhi8yvY8Dx7TuCgXaCwZ-49" value="" style="endArrow=classic;html=1;rounded=0;exitX=0.5;exitY=0;exitDx=0;exitDy=0;entryX=0.639;entryY=1.004;entryDx=0;entryDy=0;entryPerimeter=0;" edge="1" parent="1" source="xhi8yvY8Dx7TuCgXaCwZ-42" target="xhi8yvY8Dx7TuCgXaCwZ-45">
          <mxGeometry width="50" height="50" relative="1" as="geometry">
            <mxPoint x="480" y="520" as="sourcePoint" />
            <mxPoint x="150" y="620" as="targetPoint" />
          </mxGeometry>
        </mxCell>
        <mxCell id="xhi8yvY8Dx7TuCgXaCwZ-50" value="" style="endArrow=classic;html=1;rounded=0;exitX=0.5;exitY=0;exitDx=0;exitDy=0;entryX=0.639;entryY=1.004;entryDx=0;entryDy=0;entryPerimeter=0;" edge="1" parent="1">
          <mxGeometry width="50" height="50" relative="1" as="geometry">
            <mxPoint x="880" y="650" as="sourcePoint" />
            <mxPoint x="997" y="610" as="targetPoint" />
          </mxGeometry>
        </mxCell>
        <mxCell id="xhi8yvY8Dx7TuCgXaCwZ-51" value="" style="endArrow=classic;html=1;rounded=0;exitX=0.5;exitY=0;exitDx=0;exitDy=0;entryX=0.5;entryY=1;entryDx=0;entryDy=0;" edge="1" parent="1" target="xhi8yvY8Dx7TuCgXaCwZ-46">
          <mxGeometry width="50" height="50" relative="1" as="geometry">
            <mxPoint x="880" y="650" as="sourcePoint" />
            <mxPoint x="760" y="620" as="targetPoint" />
          </mxGeometry>
        </mxCell>
        <mxCell id="xhi8yvY8Dx7TuCgXaCwZ-52" value="" style="endArrow=none;html=1;rounded=0;exitX=0.5;exitY=0;exitDx=0;exitDy=0;" edge="1" parent="1" source="xhi8yvY8Dx7TuCgXaCwZ-42">
          <mxGeometry width="50" height="50" relative="1" as="geometry">
            <mxPoint x="480" y="380" as="sourcePoint" />
            <mxPoint x="-40" y="360" as="targetPoint" />
          </mxGeometry>
        </mxCell>
        <mxCell id="xhi8yvY8Dx7TuCgXaCwZ-53" value="" style="endArrow=none;html=1;rounded=0;exitX=0.5;exitY=0;exitDx=0;exitDy=0;" edge="1" parent="1">
          <mxGeometry width="50" height="50" relative="1" as="geometry">
            <mxPoint x="1030" y="540" as="sourcePoint" />
            <mxPoint x="920" y="360" as="targetPoint" />
          </mxGeometry>
        </mxCell>
        <mxCell id="xhi8yvY8Dx7TuCgXaCwZ-54" value="have" style="rhombus;whiteSpace=wrap;html=1;" vertex="1" parent="1">
          <mxGeometry x="-80" y="280" width="80" height="80" as="geometry" />
        </mxCell>
        <mxCell id="xhi8yvY8Dx7TuCgXaCwZ-55" value="&lt;font style=&quot;font-size: 15px;&quot;&gt;contain&lt;/font&gt;" style="rhombus;whiteSpace=wrap;html=1;" vertex="1" parent="1">
          <mxGeometry x="850" y="320" width="80" height="80" as="geometry" />
        </mxCell>
        <mxCell id="xhi8yvY8Dx7TuCgXaCwZ-56" value="" style="endArrow=none;html=1;rounded=0;exitX=0.5;exitY=0;exitDx=0;exitDy=0;entryX=0.5;entryY=1;entryDx=0;entryDy=0;" edge="1" parent="1" source="xhi8yvY8Dx7TuCgXaCwZ-54" target="xhi8yvY8Dx7TuCgXaCwZ-1">
          <mxGeometry width="50" height="50" relative="1" as="geometry">
            <mxPoint x="480" y="380" as="sourcePoint" />
            <mxPoint x="530" y="330" as="targetPoint" />
          </mxGeometry>
        </mxCell>
        <mxCell id="xhi8yvY8Dx7TuCgXaCwZ-57" value="" style="endArrow=none;html=1;rounded=0;entryX=0.5;entryY=1;entryDx=0;entryDy=0;exitX=0.5;exitY=0;exitDx=0;exitDy=0;" edge="1" parent="1" source="xhi8yvY8Dx7TuCgXaCwZ-55" target="xhi8yvY8Dx7TuCgXaCwZ-12">
          <mxGeometry width="50" height="50" relative="1" as="geometry">
            <mxPoint x="480" y="380" as="sourcePoint" />
            <mxPoint x="530" y="330" as="targetPoint" />
          </mxGeometry>
        </mxCell>
        <mxCell id="xhi8yvY8Dx7TuCgXaCwZ-58" value="" style="endArrow=classic;html=1;rounded=0;exitX=0.5;exitY=0;exitDx=0;exitDy=0;" edge="1" parent="1" source="xhi8yvY8Dx7TuCgXaCwZ-12" target="xhi8yvY8Dx7TuCgXaCwZ-59">
          <mxGeometry width="50" height="50" relative="1" as="geometry">
            <mxPoint x="530" y="470" as="sourcePoint" />
            <mxPoint x="760" y="200" as="targetPoint" />
          </mxGeometry>
        </mxCell>
        <mxCell id="xhi8yvY8Dx7TuCgXaCwZ-59" value="&lt;font style=&quot;font-size: 15px;&quot;&gt;&lt;i&gt;&lt;b&gt;category_id&lt;/b&gt;&lt;/i&gt;&lt;/font&gt;" style="ellipse;whiteSpace=wrap;html=1;fillColor=#e1d5e7;strokeColor=#9673a6;" vertex="1" parent="1">
          <mxGeometry x="769.9999999999995" y="160" width="120" height="80" as="geometry" />
        </mxCell>
        <mxCell id="xhi8yvY8Dx7TuCgXaCwZ-60" value="&lt;h2&gt;&lt;font style=&quot;font-size: 15px;&quot;&gt;n&lt;/font&gt;&lt;/h2&gt;" style="text;html=1;align=center;verticalAlign=middle;resizable=0;points=[];autosize=1;strokeColor=none;fillColor=none;" vertex="1" parent="1">
          <mxGeometry x="765" y="243" width="30" height="60" as="geometry" />
        </mxCell>
        <mxCell id="xhi8yvY8Dx7TuCgXaCwZ-61" value="&lt;h2&gt;&lt;font style=&quot;font-size: 15px;&quot;&gt;1&lt;/font&gt;&lt;/h2&gt;" style="text;html=1;align=center;verticalAlign=middle;resizable=0;points=[];autosize=1;strokeColor=none;fillColor=none;" vertex="1" parent="1">
          <mxGeometry x="985" y="423" width="30" height="60" as="geometry" />
        </mxCell>
        <mxCell id="xhi8yvY8Dx7TuCgXaCwZ-62" value="&lt;h2&gt;&lt;font style=&quot;font-size: 15px;&quot;&gt;1&lt;/font&gt;&lt;/h2&gt;" style="text;html=1;align=center;verticalAlign=middle;resizable=0;points=[];autosize=1;strokeColor=none;fillColor=none;" vertex="1" parent="1">
          <mxGeometry x="695" y="313" width="30" height="60" as="geometry" />
        </mxCell>
        <mxCell id="xhi8yvY8Dx7TuCgXaCwZ-64" value="&lt;h2&gt;&lt;font style=&quot;font-size: 15px;&quot;&gt;1&lt;/font&gt;&lt;/h2&gt;" style="text;html=1;align=center;verticalAlign=middle;resizable=0;points=[];autosize=1;strokeColor=none;fillColor=none;" vertex="1" parent="1">
          <mxGeometry x="125" y="303" width="30" height="60" as="geometry" />
        </mxCell>
        <mxCell id="xhi8yvY8Dx7TuCgXaCwZ-65" value="&lt;h2&gt;&lt;font style=&quot;font-size: 15px;&quot;&gt;n&lt;/font&gt;&lt;/h2&gt;" style="text;html=1;align=center;verticalAlign=middle;resizable=0;points=[];autosize=1;strokeColor=none;fillColor=none;" vertex="1" parent="1">
          <mxGeometry x="235" y="543" width="30" height="60" as="geometry" />
        </mxCell>
        <mxCell id="xhi8yvY8Dx7TuCgXaCwZ-66" value="&lt;h2&gt;&lt;font style=&quot;font-size: 15px;&quot;&gt;1&lt;/font&gt;&lt;/h2&gt;" style="text;html=1;align=center;verticalAlign=middle;resizable=0;points=[];autosize=1;strokeColor=none;fillColor=none;" vertex="1" parent="1">
          <mxGeometry x="35" y="215" width="30" height="60" as="geometry" />
        </mxCell>
        <mxCell id="xhi8yvY8Dx7TuCgXaCwZ-67" value="&lt;h2&gt;&lt;font style=&quot;font-size: 15px;&quot;&gt;n&lt;/font&gt;&lt;/h2&gt;" style="text;html=1;align=center;verticalAlign=middle;resizable=0;points=[];autosize=1;strokeColor=none;fillColor=none;" vertex="1" parent="1">
          <mxGeometry y="465" width="30" height="60" as="geometry" />
        </mxCell>
        <mxCell id="xhi8yvY8Dx7TuCgXaCwZ-68" value="&lt;h1 style=&quot;font-size: 15px;&quot;&gt;can &lt;font style=&quot;font-size: 15px;&quot;&gt;create&lt;/font&gt;&lt;/h1&gt;" style="rhombus;whiteSpace=wrap;html=1;" vertex="1" parent="1">
          <mxGeometry x="360" y="170" width="80" height="80" as="geometry" />
        </mxCell>
        <mxCell id="xhi8yvY8Dx7TuCgXaCwZ-69" value="" style="endArrow=none;html=1;rounded=0;exitX=1;exitY=0.5;exitDx=0;exitDy=0;entryX=0;entryY=0.5;entryDx=0;entryDy=0;" edge="1" parent="1" source="xhi8yvY8Dx7TuCgXaCwZ-71" target="xhi8yvY8Dx7TuCgXaCwZ-68">
          <mxGeometry width="50" height="50" relative="1" as="geometry">
            <mxPoint x="530" y="170" as="sourcePoint" />
            <mxPoint x="580" y="120" as="targetPoint" />
          </mxGeometry>
        </mxCell>
        <mxCell id="xhi8yvY8Dx7TuCgXaCwZ-70" value="" style="endArrow=none;html=1;rounded=0;exitX=1;exitY=0.5;exitDx=0;exitDy=0;entryX=0;entryY=0.5;entryDx=0;entryDy=0;" edge="1" parent="1" source="xhi8yvY8Dx7TuCgXaCwZ-72" target="xhi8yvY8Dx7TuCgXaCwZ-12">
          <mxGeometry width="50" height="50" relative="1" as="geometry">
            <mxPoint x="530" y="170" as="sourcePoint" />
            <mxPoint x="580" y="120" as="targetPoint" />
          </mxGeometry>
        </mxCell>
        <mxCell id="xhi8yvY8Dx7TuCgXaCwZ-73" value="" style="endArrow=none;html=1;rounded=0;exitX=1;exitY=0.5;exitDx=0;exitDy=0;entryX=0;entryY=0.5;entryDx=0;entryDy=0;" edge="1" parent="1" source="xhi8yvY8Dx7TuCgXaCwZ-68" target="xhi8yvY8Dx7TuCgXaCwZ-72">
          <mxGeometry width="50" height="50" relative="1" as="geometry">
            <mxPoint x="440" y="210" as="sourcePoint" />
            <mxPoint x="580" y="210" as="targetPoint" />
          </mxGeometry>
        </mxCell>
        <mxCell id="xhi8yvY8Dx7TuCgXaCwZ-72" value="&lt;h2&gt;&lt;font style=&quot;font-size: 15px;&quot;&gt;n&lt;/font&gt;&lt;/h2&gt;" style="text;html=1;align=center;verticalAlign=middle;resizable=0;points=[];autosize=1;strokeColor=none;fillColor=none;" vertex="1" parent="1">
          <mxGeometry x="500" y="180" width="30" height="60" as="geometry" />
        </mxCell>
        <mxCell id="xhi8yvY8Dx7TuCgXaCwZ-75" value="" style="endArrow=none;html=1;rounded=0;exitX=1;exitY=0.5;exitDx=0;exitDy=0;entryX=0;entryY=0.5;entryDx=0;entryDy=0;" edge="1" parent="1" source="xhi8yvY8Dx7TuCgXaCwZ-1" target="xhi8yvY8Dx7TuCgXaCwZ-71">
          <mxGeometry width="50" height="50" relative="1" as="geometry">
            <mxPoint x="240" y="210" as="sourcePoint" />
            <mxPoint x="360" y="210" as="targetPoint" />
          </mxGeometry>
        </mxCell>
        <mxCell id="xhi8yvY8Dx7TuCgXaCwZ-71" value="&lt;h2&gt;&lt;font style=&quot;font-size: 15px;&quot;&gt;1&lt;/font&gt;&lt;/h2&gt;" style="text;html=1;align=center;verticalAlign=middle;resizable=0;points=[];autosize=1;strokeColor=none;fillColor=none;" vertex="1" parent="1">
          <mxGeometry x="280" y="180" width="30" height="60" as="geometry" />
        </mxCell>
      </root>
    </mxGraphModel>
  </diagram>
</mxfile>
